<?xml version="1.0" encoding="UTF-8"?>
<svg id="Layer_1" data-name="Layer 1" xmlns="http://www.w3.org/2000/svg" viewBox="0 0 1029.45 885.45">
  <defs>
    <style>
      .cls-1 {
        fill: #dc346e;
      }
    </style>
  </defs>
  <path class="cls-1" d="M836.19,345.13c-5.09-9.67-10.53-19.14-16.3-28.42-89.74-144.19-280.29-232.9-448.6-213.61-108.5,12.44-204.72,71.14-261.93,164.74-34.02,55.66-56.38,120.71-53.08,186.55,6.62,131.82,91.29,267.2,213.81,320.49,53.21,23.14,112.61,27.14,169.27,16.19,32.64-6.31,64.79-16.59,93.47-33.68,31.15-18.57,52.64-47.66,82.2-68.06,16.14-11.14,37.42-13.73,56.63-14.53,40.24-1.68,84.59,7.45,121.68-11.03,35.74-17.8,59.61-49.73,71.62-87.32,23.7-74.19,6.46-164.37-28.77-231.31ZM827.52,424.76c15.95,33.66,31.03,64.9,12.02,100.96-15.43,29.27-46.24,51.63-78.54,58.2-10.2,2.07-20.68,1.86-31.11,1.42-1.23-.05-2.45-.11-3.68-.17-5.97-.27-69.45,1.14-70.02-8.65-.38-6.65-.11-59.54-3.71-60.63,34.68,10.49,90.93,9.74,122.15-10.58,20.72-13.49,32.27-36.98,42.84-59.32,3.34-7.07,6.7-14.15,10.04-21.22ZM705.89,268.05c-.11-12.32-.8-24.63-1.49-36.95,23.71,7.45,52.9,42.42,59.64,66.27,7.92,28.04-14.8,60.21-31.64,79.65-16.95,19.58-42.91,36.49-65.77,48.05-8.32,4.21-23.64,12.92-33.95,9.49-.51-.17-1.01-.37-1.5-.6-11.4-5.46-22.34-35.62-14.9-46.62,4.91-7.26,25.61-13.56,33.41-18.69,22.35-14.69,41.76-33.6,50.96-59.27,4.71-13.14,5.37-27.36,5.25-41.33ZM624.53,205.24c-3.24-9.64-8.05-19.36-6.74-29.44,13.92,3.8,28.07,7.7,40.27,15.4,32.73,21.82,28.54,49.95,21.98,83.34-2.1,10.67-4.23,21.46-8.74,31.35-3.89,8.54-9.46,16.21-15.37,23.5-2.14,2.65-4.34,5.26-6.59,7.82-1.61,1.85-3.24,3.66-4.9,5.45-10.83,11.74-24.17,23.47-38.25,31.09-1.55.83-3.27,1.66-4.99,1.31-1.4-.27-2.52-1.27-3.57-2.22-17.15-15.55-36.14-22.05-21.91-42.55,8.9-12.81,24.17-20.76,33.54-33.24,19.6-26.07,25.77-60.63,15.26-91.82ZM520.34,139.77c33.35,15.98,58.8,2.25,75.12,44.11,14.19,36.39,9.33,68.27-5.87,99.02-5.73,11.61-12.96,23.05-21.18,34.52-3.41,4.76-7.21,9.6-12.53,12.02-8.78,4.01-35.75-10.84-37.96-20.29-1.8-7.99,17.04-38.9,19.2-49.39,7.22-35.22,4.14-77.31-20.28-105.6-.03-.03-11.81-13.63-11.81-13.63-2.27-3.1-4.42-4.59-4.36-8.42,7.74-.28,12.7,4.34,19.68,7.67ZM401.82,122.29c15.78-1.48,31.66-1.07,47.32,1.53,26.65,4.43,50.75,43.03,58.32,67.01,6.86,21.75,8.87,44.65,9.38,67.3.37,16.26-3.13,31.78-13.28,43.69-3.35,3.93-7.06,3.11-11.27,1.78l-17.15-5.45-27.48-9.11c8.25-52.87,3.11-116.22-47.74-146.29-7.73-4.57-14.99-8.46-22.11-14.72-1.63-1.44,20.98-5.44,24.02-5.73ZM319.5,138.54c32.59-9.67,62.62,15.42,83.42,37.64,9.32,9.95,13.6,23.09,19.51,35.02,10.49,21.19,16.85,54.97,11.71,78.83-13.27-1.75-25.98-.49-39.01,1.71-6.04,1.03-11.38,2.18-18.25,1.23-5.69-18.13-11.39-35.26-18.97-51.98-7.68-16.96-18.6-29.28-34.12-39.3-19.18-12.33-40.31-19.44-60.1-29.59,2.42,1.23,49.43-31.68,55.81-33.58ZM569.77,694.21c-36.26,34.4-82.07,61.27-132.04,68.67-13.92,2.06-27.87,4.13-41.94,4.54-176.96,5.25-306.84-173.31-309.99-336.57-.37-18.92,2.31-40.83,18.18-51.14,18.74-12.18,46.3-1.53,64.45-14.56-19.76-1.91-54.03.66-59.26-20.68-4.42-18.06,19.71-47.75,33.55-56.02,25.39-15.17,57.7-7.26,86.07,1.07,6.51,1.91,13.01,3.82,19.52,5.73,1.72-7.71-7.16-13.23-14.62-15.85-21.61-7.59-44.02-12.87-66.75-15.71-3.38-.43-7.25-1.1-8.96-4.03-1.86-3.19-.14-7.21,1.74-10.39,20.86-35.48,63.94-63.61,106.04-50.19,13.48,4.3,25.93,8.33,38.1,15.83,7.23,4.46,15.36,8.91,20.39,16.18,9.25,13.39,36.94,56.71,37.29,66.1.18,4.83-8.74,6.63-12.7,6.99-57.86,5.11-108.12,92.65-116.27,142.97-19.06,117.68,84.84,221.81,202.53,178.8,109.92-40.15,120.5-228.51-12.95-241.59-35.53-3.48-72.36,13.01-93.42,41.84-19.57,26.79-24.91,64.09-11.14,94.28,13.76,30.18,47.16,50.99,80.16,47.5,32.99-3.48,62.08-32.72,63-65.89.09-3.39-.13-6.77-.66-10.11-.04-.29-.09-.58-.14-.87-4.88-28.64-31.23-53.41-60.47-52.9l-8.55-16.57-10.51,20.35-13.31,25.77-18.83,9.72-20.56,10.61c-1.72-37.6,27.96-74.55,65.36-82.03,40.33-8.07,83.77,16.32,101.16,53.6,30.35,65.05-13.36,136.9-79.66,153.04-40.88,9.95-86.43-.53-118.19-28.14-57.47-49.97-57.02-151.51-10.25-208.58,1.08-1.33,2.2-2.62,3.34-3.9,7.27-8.13,15.56-15.32,23.82-22.47,41.08-35.57,80.4-44.41,133.81-36.15,16.58,2.56,32.52,8.33,47.95,14.95,104.41,44.79,131.26,137.25,137.74,243.65,3.2,52.54-26.03,87.04-63.02,122.14ZM328.45,495.44l21.51,11.1,17.15,8.86,8.06,15.61,10.67,20.67c-4.95-.34-9.84-1.3-14.52-2.94-22.11-7.72-38.43-28.73-42.6-51.77-.09-.51-.18-1.02-.26-1.53ZM414.74,515.4l28.56-14.75c.25,10.56-2.74,21.24-8.98,29.76-8.88,12.13-23.21,19.42-38.19,21.04l18.61-36.06ZM409.74,458.09c6.77,1.31,13.2,4.19,18.46,8.7,4.28,3.68,7.65,8.17,10.12,13.15l-23.58-12.17-4.99-9.68ZM736.29,409.8c26.88-25.08,43.08-61.26,43.88-98.02,16.19,26.23,32.95,54.46,31.95,85.27-.61,19.06-8.2,37.47-19.39,52.91-17.96,24.79-44.41,39.69-73.24,46.6-19.69,4.72-40.49,5.71-60.48,3.57-2.21-.24-4.54-.57-6.28-1.97-1.89-1.51-2.7-3.97-3.4-6.28-4.61-15.03-9.23-30.04-13.84-45.06,36.72,1.74,73.93-11.93,100.81-37.01ZM840.01,591.88c-12.75,16-33.82,25.16-51.16,33.36-34.56,16.36-73.18,22.04-111.15,21.94-12.84-.03-25.69.82-38.6,4.77,4.31-16.45,8.63-32.9,12.94-49.36.36-1.36.74-2.77,1.63-3.85,2.6-3.12,7.56-1.88,11.36-.47,34.97,12.95,73.49,22.38,109.52,7.32,24.87-10.41,39.66-34.2,61.98-48.31,27.41-17.33,11.31,24.76,3.48,34.59Z"/>
</svg>